HIERARCHY
ROOT Root
{
  OFFSET 0.0 0.0 0.0
  CHANNELS 6 Xposition Yposition Zposition Zrotation Yrotation Xrotation
  JOINT Hips
  {
    OFFSET 0.0 100.0 0.0
    CHANNELS 6 Xposition Yposition Zposition Zrotation Yrotation Xrotation
    JOINT Spine1
    {
      OFFSET 5.003913 -0.037094 -0.013727
      CHANNELS 3 Zrotation Yrotation Xrotation
      JOINT Spine2
      {
        OFFSET 7.125363 -1e-06 0.0
        CHANNELS 3 Zrotation Yrotation Xrotation
        JOINT Chest
        {
          OFFSET 7.594027 1e-06 0.0
          CHANNELS 3 Zrotation Yrotation Xrotation
          JOINT Neck1
          {
            OFFSET 26.313086 -0.460272 -0.181672
            CHANNELS 3 Zrotation Yrotation Xrotation
            JOINT Neck2
            {
              OFFSET 8.045911 0.0 0.0
              CHANNELS 3 Zrotation Yrotation Xrotation
              JOINT Head
              {
                OFFSET 6.432774 0.0 0.0
                CHANNELS 3 Zrotation Yrotation Xrotation
                JOINT HeadEnd
                {
                  OFFSET 16.169773 0.06451 0.00362
                  CHANNELS 3 Zrotation Yrotation Xrotation
                }
                JOINT Jaw
                {
                  OFFSET 0.108741 3.12938 0.002639
                  CHANNELS 3 Zrotation Yrotation Xrotation
                }
                JOINT LeftEye
                {
                  OFFSET 4.45173 8.166359 3.206392
                  CHANNELS 3 Zrotation Yrotation Xrotation
                }
                JOINT RightEye
                {
                  OFFSET 4.436895 8.135758 -3.222429
                  CHANNELS 3 Zrotation Yrotation Xrotation
                }
              }
            }
          }
          JOINT LeftShoulder
          {
            OFFSET 23.218927 5.195579 1.621656
            CHANNELS 3 Zrotation Yrotation Xrotation
            JOINT LeftArm
            {
              OFFSET 15.902118 2e-06 -2e-06
              CHANNELS 3 Zrotation Yrotation Xrotation
              JOINT LeftForeArm
              {
                OFFSET 28.739307 0.0 -1e-06
                CHANNELS 3 Zrotation Yrotation Xrotation
                JOINT LeftHand
                {
                  OFFSET 27.093981 -4e-06 0.0
                  CHANNELS 3 Zrotation Yrotation Xrotation
                  JOINT LeftHandThumb1
                  {
                    OFFSET 2.276781 3.380274 0.83384
                    CHANNELS 3 Zrotation Yrotation Xrotation
                    JOINT LeftHandThumb2
                    {
                      OFFSET 4.705309 -1e-06 -1e-06
                      CHANNELS 3 Zrotation Yrotation Xrotation
                      JOINT LeftHandThumb3
                      {
                        OFFSET 2.798515 0.0 3e-06
                        CHANNELS 3 Zrotation Yrotation Xrotation
                        JOINT LeftHandThumbEnd
                        {
                          OFFSET 3.180793 4e-06 -4e-06
                          CHANNELS 3 Zrotation Yrotation Xrotation
                        }
                      }
                    }
                  }
                  JOINT LeftHandIndex1
                  {
                    OFFSET 3.247786 2.352677 0.137192
                    CHANNELS 3 Zrotation Yrotation Xrotation
                    JOINT LeftHandIndex2
                    {
                      OFFSET 6.367095 1e-06 0.0
                      CHANNELS 3 Zrotation Yrotation Xrotation
                      JOINT LeftHandIndex3
                      {
                        OFFSET 3.662364 0.0 0.0
                        CHANNELS 3 Zrotation Yrotation Xrotation
                        JOINT LeftHandIndex4
                        {
                          OFFSET 2.329242 4e-06 -4e-06
                          CHANNELS 3 Zrotation Yrotation Xrotation
                          JOINT LeftHandIndexEnd
                          {
                            OFFSET 2.767823 1e-06 0.0
                            CHANNELS 3 Zrotation Yrotation Xrotation
                          }
                        }
                      }
                    }
                  }
                  JOINT LeftHandMiddle1
                  {
                    OFFSET 3.163612 0.945023 -0.406112
                    CHANNELS 3 Zrotation Yrotation Xrotation
                    JOINT LeftHandMiddle2
                    {
                      OFFSET 6.276789 3e-06 0.0
                      CHANNELS 3 Zrotation Yrotation Xrotation
                      JOINT LeftHandMiddle3
                      {
                        OFFSET 4.35652 -1e-06 4e-06
                        CHANNELS 3 Zrotation Yrotation Xrotation
                        JOINT LeftHandMiddle4
                        {
                          OFFSET 2.996877 0.0 8e-06
                          CHANNELS 3 Zrotation Yrotation Xrotation
                          JOINT LeftHandMiddleEnd
                          {
                            OFFSET 2.323256 3e-06 -4e-06
                            CHANNELS 3 Zrotation Yrotation Xrotation
                          }
                        }
                      }
                    }
                  }
                  JOINT LeftHandRing1
                  {
                    OFFSET 2.882606 -0.309162 0.107445
                    CHANNELS 3 Zrotation Yrotation Xrotation
                    JOINT LeftHandRing2
                    {
                      OFFSET 6.033198 0.0 4e-06
                      CHANNELS 3 Zrotation Yrotation Xrotation
                      JOINT LeftHandRing3
                      {
                        OFFSET 4.350578 3e-06 0.0
                        CHANNELS 3 Zrotation Yrotation Xrotation
                        JOINT LeftHandRing4
                        {
                          OFFSET 2.651321 2e-06 -7e-06
                          CHANNELS 3 Zrotation Yrotation Xrotation
                          JOINT LeftHandRingEnd
                          {
                            OFFSET 1.937663 1e-06 -4e-06
                            CHANNELS 3 Zrotation Yrotation Xrotation
                          }
                        }
                      }
                    }
                  }
                  JOINT LeftHandPinky1
                  {
                    OFFSET 2.865315 -1.525436 0.575687
                    CHANNELS 3 Zrotation Yrotation Xrotation
                    JOINT LeftHandPinky2
                    {
                      OFFSET 5.54936 1e-06 -8e-06
                      CHANNELS 3 Zrotation Yrotation Xrotation
                      JOINT LeftHandPinky3
                      {
                        OFFSET 3.070974 0.0 -4e-06
                        CHANNELS 3 Zrotation Yrotation Xrotation
                        JOINT LeftHandPinky4
                        {
                          OFFSET 1.549672 1e-06 0.0
                          CHANNELS 3 Zrotation Yrotation Xrotation
                          JOINT LeftHandPinkyEnd
                          {
                            OFFSET 1.952123 0.0 0.0
                            CHANNELS 3 Zrotation Yrotation Xrotation
                          }
                        }
                      }
                    }
                  }
                }
              }
            }
          }
          JOINT RightShoulder
          {
            OFFSET 23.161716 5.296122 -1.380114
            CHANNELS 3 Zrotation Yrotation Xrotation
            JOINT RightArm
            {
              OFFSET -16.027195 -2e-06 1.1e-05
              CHANNELS 3 Zrotation Yrotation Xrotation
              JOINT RightForeArm
              {
                OFFSET -28.736639 4e-06 2e-06
                CHANNELS 3 Zrotation Yrotation Xrotation
                JOINT RightHand
                {
                  OFFSET -27.133619 6e-06 0.0
                  CHANNELS 3 Zrotation Yrotation Xrotation
                  JOINT RightHandThumb1
                  {
                    OFFSET -2.274328 -3.351035 -0.83067
                    CHANNELS 3 Zrotation Yrotation Xrotation
                    JOINT RightHandThumb2
                    {
                      OFFSET -4.703594 -3e-06 2e-06
                      CHANNELS 3 Zrotation Yrotation Xrotation
                      JOINT RightHandThumb3
                      {
                        OFFSET -2.794935 -4e-06 -3e-06
                        CHANNELS 3 Zrotation Yrotation Xrotation
                        JOINT RightHandThumbEnd
                        {
                          OFFSET -3.183852 4e-06 1e-06
                          CHANNELS 3 Zrotation Yrotation Xrotation
                        }
                      }
                    }
                  }
                  JOINT RightHandIndex1
                  {
                    OFFSET -3.253496 -2.33755 -0.127667
                    CHANNELS 3 Zrotation Yrotation Xrotation
                    JOINT RightHandIndex2
                    {
                      OFFSET -6.344434 0.0 0.0
                      CHANNELS 3 Zrotation Yrotation Xrotation
                      JOINT RightHandIndex3
                      {
                        OFFSET -3.654871 0.0 -8e-06
                        CHANNELS 3 Zrotation Yrotation Xrotation
                        JOINT RightHandIndex4
                        {
                          OFFSET -2.327586 -1e-06 0.0
                          CHANNELS 3 Zrotation Yrotation Xrotation
                          JOINT RightHandIndexEnd
                          {
                            OFFSET -2.770001 3e-06 8e-06
                            CHANNELS 3 Zrotation Yrotation Xrotation
                          }
                        }
                      }
                    }
                  }
                  JOINT RightHandMiddle1
                  {
                    OFFSET -3.168223 -0.944764 0.411762
                    CHANNELS 3 Zrotation Yrotation Xrotation
                    JOINT RightHandMiddle2
                    {
                      OFFSET -6.266691 -1e-06 -4e-06
                      CHANNELS 3 Zrotation Yrotation Xrotation
                      JOINT RightHandMiddle3
                      {
                        OFFSET -4.348901 0.0 0.0
                        CHANNELS 3 Zrotation Yrotation Xrotation
                        JOINT RightHandMiddle4
                        {
                          OFFSET -3.00024 2e-06 -4e-06
                          CHANNELS 3 Zrotation Yrotation Xrotation
                          JOINT RightHandMiddleEnd
                          {
                            OFFSET -2.321477 -4e-06 -4e-06
                            CHANNELS 3 Zrotation Yrotation Xrotation
                          }
                        }
                      }
                    }
                  }
                  JOINT RightHandRing1
                  {
                    OFFSET -2.885654 0.293261 -0.119232
                    CHANNELS 3 Zrotation Yrotation Xrotation
                    JOINT RightHandRing2
                    {
                      OFFSET -6.032835 -1e-06 -4e-06
                      CHANNELS 3 Zrotation Yrotation Xrotation
                      JOINT RightHandRing3
                      {
                        OFFSET -4.33881 0.0 -4e-06
                        CHANNELS 3 Zrotation Yrotation Xrotation
                        JOINT RightHandRing4
                        {
                          OFFSET -2.654903 -4e-06 -4e-06
                          CHANNELS 3 Zrotation Yrotation Xrotation
                          JOINT RightHandRingEnd
                          {
                            OFFSET -1.935122 0.0 4e-06
                            CHANNELS 3 Zrotation Yrotation Xrotation
                          }
                        }
                      }
                    }
                  }
                  JOINT RightHandPinky1
                  {
                    OFFSET -2.866241 1.503904 -0.60527
                    CHANNELS 3 Zrotation Yrotation Xrotation
                    JOINT RightHandPinky2
                    {
                      OFFSET -5.553177 -2e-06 0.0
                      CHANNELS 3 Zrotation Yrotation Xrotation
                      JOINT RightHandPinky3
                      {
                        OFFSET -3.062664 -1e-06 -4e-06
                        CHANNELS 3 Zrotation Yrotation Xrotation
                        JOINT RightHandPinky4
                        {
                          OFFSET -1.546529 2e-06 4e-06
                          CHANNELS 3 Zrotation Yrotation Xrotation
                          JOINT RightHandPinkyEnd
                          {
                            OFFSET -1.952341 0.0 -4e-06
                            CHANNELS 3 Zrotation Yrotation Xrotation
                          }
                        }
                      }
                    }
                  }
                }
              }
            }
          }
        }
      }
    }
    JOINT LeftLeg
    {
      OFFSET -8.443107 2.567604 10.043214
      CHANNELS 3 Zrotation Yrotation Xrotation
      JOINT LeftShin
      {
        OFFSET 43.229198 1e-06 -1e-06
        CHANNELS 3 Zrotation Yrotation Xrotation
        JOINT LeftFoot
        {
          OFFSET 42.298611 1e-06 1e-06
          CHANNELS 3 Zrotation Yrotation Xrotation
          JOINT LeftToeBase
          {
            OFFSET 14.165858 1e-06 0.0
            CHANNELS 3 Zrotation Yrotation Xrotation
            JOINT LeftToeEnd
            {
              OFFSET 6.7141 -0.234461 0.0
              CHANNELS 3 Zrotation Yrotation Xrotation
            }
          }
        }
      }
    }
    JOINT RightLeg
    {
      OFFSET -8.303923 2.592729 -10.047278
      CHANNELS 3 Zrotation Yrotation Xrotation
      JOINT RightShin
      {
        OFFSET -43.369682 0.0 1e-06
        CHANNELS 3 Zrotation Yrotation Xrotation
        JOINT RightFoot
        {
          OFFSET -42.260784 4e-06 2e-06
          CHANNELS 3 Zrotation Yrotation Xrotation
          JOINT RightToeBase
          {
            OFFSET -14.222245 -2e-06 -1e-06
            CHANNELS 3 Zrotation Yrotation Xrotation
            JOINT RightToeEnd
            {
              OFFSET -6.660062 0.232574 -2e-06
              CHANNELS 3 Zrotation Yrotation Xrotation
            }
          }
        }
      }
    }
  }
}
MOTION
Frames: 5
Frame Time: 0.03333333333333333
0.0 0.0 0.0 0.0 -0.0 0.0 -14.035419 97.475548 183.530945 88.655685 -0.040621 92.335693 -0.42864 0.608208 -0.138854 -11.885437 -0.328109 -1.019801 22.401712 2.12519 -2.211524 46.138798 3.275356 2.381045 -2.555378 -0.581733 0.220215 -18.585953 -1.210968 -0.455649 6e-06 -0.0 -0.0 -0.130979 -0.005428 0.008876 -0.104854 -0.010956 -0.053797 -0.121079 0.003657 0.082207 -110.943413 -80.330307 134.42572 53.991997 -46.491673 18.923807 27.543205 0.199534 -0.100003 -1.323887 2.7308 -0.179877 17.636635 -26.322725 52.411182 -19.466661 -14.395598 29.410385 -1e-06 -8.774823 -4e-06 16.229149 -17.900959 6.023126 -0.609776 -1.795653 -3.889325 -4.80709 -11.046811 -2.937848 5e-06 -20.976019 2e-06 -5.019971 -25.03356 -4.031882 6e-06 0.0 -1e-06 -10.634537 -5.686969 -3.565587 10.573276 -17.922951 -3.113899 3e-06 -13.821206 2e-06 -0.501777 -31.181501 -4.027016 -11.791967 -60.328686 7.433775 -13.982716 -7.150197 -2.875041 13.772732 -8.401492 -3.218242 0.347736 -34.211552 0.771653 -0.963028 -17.73337 2.62102 -1e-06 -0.0 -0.0 -17.346422 -20.095217 -4.20178 21.757565 -1.638376 3.86643 1e-06 -6.338823 0.0 -1.697589 -22.591747 -6.194008 -2e-06 -3e-06 -2e-06 36.479588 -77.832726 168.862305 49.43681 -41.70274 5.189289 30.825987 -0.377339 -0.077992 -2.173412 2.644227 -5.071811 22.182121 -20.375891 49.933323 -16.701815 -16.743528 28.476532 -4e-06 -12.690601 -3e-06 16.267462 -17.507769 2.320477 -0.105919 -1.513855 -4.275881 -5.039042 -5.612872 -2.953554 5e-06 -11.020524 -1e-06 -6.111297 -15.895332 -3.840474 -0.0 1e-06 -0.0 -10.283371 -5.680288 -4.341838 11.028296 -11.302406 -2.372635 -1.384268 -14.238581 -6.320124 -0.625436 -26.924191 -3.827602 -4.072406 -49.482418 -4.150428 -13.708524 -7.363475 -3.720939 18.14115 -14.05274 -3.242677 8e-06 -18.787268 -4e-06 -0.429712 -8.456043 2.555503 0.0 0.0 -1e-06 -15.923534 -20.094486 -5.473587 30.41921 -7.190826 1.735923 4e-06 -8.162927 1e-06 -1.861899 -22.861473 -6.167947 -2e-06 -3e-06 -2e-06 -171.237335 -1.998796 0.185836 24.48177 -0.170786 0.183605 -85.244713 3.431247 -0.830017 -14.661483 1.806879 2.092406 -0.999999 -0.0 0.0 -22.906513 -0.073925 -9.571684 18.873192 0.043826 -0.302325 -64.411377 -6.60316 -4.873423 -8.501345 0.715647 1.592174 -1.000003 0.0 0.0 
0.0 0.0 0.0 0.0 -0.0 0.0 -14.754304 97.67897 185.23407 88.148972 -0.260608 92.61274 -0.49674 1.012841 -0.214931 -11.915078 -0.293919 -1.182379 22.377243 2.329062 -2.326975 46.069714 3.459845 2.386734 -2.601568 -0.541565 0.243946 -18.777599 -1.120722 -0.443848 7e-06 -0.0 -0.0 -0.13147 0.002824 -0.001567 -0.100515 -0.004815 -0.062901 -0.117456 0.014779 0.070698 -110.836899 -80.666832 134.246902 54.478176 -46.129395 18.341299 28.200829 0.15809 -0.119329 -1.392149 3.005708 -0.15794 17.636631 -26.322739 52.411201 -19.466665 -14.395598 29.410389 -0.0 -8.774822 -3e-06 16.222809 -17.911547 5.968752 -0.609776 -1.795653 -3.88933 -4.807088 -11.046811 -2.93785 3e-06 -20.976021 3e-06 -5.019972 -25.033558 -4.031879 6e-06 0.0 0.0 -10.634533 -5.68697 -3.565587 10.573272 -17.922953 -3.113901 1e-06 -13.821209 2e-06 -0.50178 -31.181505 -4.027011 -11.726272 -60.199593 7.342012 -13.982714 -7.150198 -2.875042 13.772728 -8.401492 -3.218241 0.347733 -34.211555 0.771654 -0.963029 -17.73337 2.621021 -1e-06 -1e-06 0.0 -17.346418 -20.095221 -4.201783 21.757557 -1.638374 3.866429 1e-06 -6.338823 2e-06 -1.697591 -22.591747 -6.194004 1e-06 -5e-06 -1e-06 36.717747 -77.755135 168.642868 49.067173 -41.740604 6.138739 31.573626 -0.271796 -0.081559 -2.004078 2.448402 -5.184732 22.182117 -20.375898 49.933327 -16.701813 -16.743528 28.476532 -3e-06 -12.690602 -1e-06 16.297026 -17.582855 2.318085 -0.105919 -1.513856 -4.275882 -5.039041 -5.612871 -2.953556 4e-06 -11.020523 -1e-06 -6.111298 -15.89533 -3.840473 -1e-06 -1e-06 3e-06 -10.283371 -5.680288 -4.341839 11.028296 -11.302406 -2.372633 -1.384269 -14.238579 -6.320123 -0.625438 -26.924191 -3.827598 -4.12299 -49.52087 -4.121715 -13.708524 -7.363476 -3.720942 18.141153 -14.052739 -3.242675 7e-06 -18.78727 -0.0 -0.429711 -8.456045 2.555504 1e-06 0.0 -1e-06 -15.923536 -20.094482 -5.473587 30.419218 -7.190827 1.735928 4e-06 -8.162927 -1e-06 -1.861901 -22.861469 -6.167944 -2e-06 -2e-06 -2e-06 -170.787704 -3.363162 -0.717737 25.536125 -0.186989 0.254862 -82.012192 4.660812 -1.294328 -17.243427 1.857734 2.045615 -0.999999 0.0 0.0 -22.341339 0.842563 -9.797426 19.566799 0.057367 -0.342323 -66.080353 -7.098261 -4.389171 -8.169476 0.699292 1.592577 -1.000003 0.0 -0.0 
0.0 0.0 0.0 0.0 -0.0 0.0 -15.452539 97.837692 186.929993 87.595589 -0.418363 92.8946 -0.564656 1.459249 -0.266307 -11.956602 -0.237693 -1.294075 22.401234 2.548486 -2.445783 45.93042 3.535081 2.384923 -2.650692 -0.503972 0.242633 -18.980667 -1.058008 -0.465348 8e-06 -0.0 -0.0 -0.131908 0.004727 -0.005583 -0.103148 -0.002456 -0.066301 -0.126286 0.017235 0.06636 -111.168961 -80.933014 134.533035 55.061989 -45.665257 17.598188 28.997438 0.115506 -0.138363 -1.401608 3.38582 -0.142782 17.636629 -26.322731 52.41119 -19.46666 -14.395597 29.410385 -1e-06 -8.774819 -4e-06 16.224426 -17.929832 5.909271 -0.609776 -1.795652 -3.889328 -4.807087 -11.046807 -2.937851 5e-06 -20.976015 2e-06 -5.019969 -25.033552 -4.031878 7e-06 1e-06 2e-06 -10.634533 -5.686969 -3.565589 10.573275 -17.922951 -3.113899 3e-06 -13.821205 1e-06 -0.501776 -31.181501 -4.027011 -11.619985 -60.054424 7.216431 -13.982712 -7.150197 -2.875043 13.772729 -8.401492 -3.218239 0.347736 -34.211552 0.771654 -0.963028 -17.733368 2.621022 -1e-06 -0.0 -0.0 -17.346413 -20.095213 -4.201784 21.757557 -1.638377 3.86643 2e-06 -6.338823 2e-06 -1.697587 -22.591742 -6.194005 0.0 -3e-06 -3e-06 36.728958 -77.623123 168.643402 48.533897 -41.789009 7.181958 32.269112 -0.238188 -0.076021 -1.780627 2.239404 -5.109076 22.182116 -20.375893 49.933319 -16.701809 -16.743528 28.476528 -3e-06 -12.6906 -4e-06 16.295786 -17.626486 2.321948 -0.105919 -1.513856 -4.275879 -5.039041 -5.61287 -2.953556 4e-06 -11.020523 -2e-06 -6.111298 -15.895328 -3.840471 -0.0 -1e-06 2e-06 -10.28337 -5.680288 -4.341838 11.028293 -11.302404 -2.372634 -1.384269 -14.238579 -6.320121 -0.625439 -26.924187 -3.827602 -4.166301 -49.510014 -4.089733 -13.708525 -7.363475 -3.720938 18.141148 -14.052736 -3.242675 7e-06 -18.787266 -2e-06 -0.42971 -8.456041 2.5555 -1e-06 -0.0 2e-06 -15.923534 -20.094482 -5.473585 30.419207 -7.190823 1.735928 4e-06 -8.162925 -1e-06 -1.861901 -22.861467 -6.167942 -1e-06 -3e-06 -2e-06 -170.450653 -4.840521 -1.780863 27.018602 -0.20624 0.319658 -78.026131 5.918204 -1.499053 -19.922222 1.904824 1.999613 -1.0 -0.0 0.0 -21.591803 1.835268 -10.013002 19.977928 0.069471 -0.37687 -67.713928 -7.570664 -3.924472 -7.84456 0.68547 1.595427 -1.000002 0.0 -0.0 
0.0 0.0 0.0 0.0 -0.0 0.0 -16.107428 97.978447 188.602371 87.080368 -0.430895 93.103874 -0.549347 1.93358 -0.273079 -11.971122 -0.218435 -1.279075 22.39801 2.767868 -2.551215 45.859306 3.515688 2.367469 -2.671546 -0.465303 0.199479 -19.198748 -0.985317 -0.556394 8e-06 -0.0 -0.0 -0.142998 -0.005495 0.003884 -0.104413 -0.003149 -0.047147 -0.137187 6.1e-05 0.067405 -111.637108 -81.118164 135.003708 55.834816 -45.122803 16.639353 29.821543 0.035181 -0.212279 -1.464808 3.83891 -0.162848 17.636623 -26.322725 52.411194 -19.466661 -14.395602 29.410393 -1e-06 -8.774821 -2e-06 16.173464 -17.96236 5.948555 -0.609776 -1.795653 -3.889328 -4.807088 -11.046809 -2.937849 5e-06 -20.976015 -0.0 -5.019969 -25.033554 -4.031882 6e-06 -2e-06 1e-06 -10.634532 -5.686968 -3.565589 10.573274 -17.922947 -3.113901 3e-06 -13.821203 0.0 -0.501778 -31.181498 -4.027015 -11.631367 -59.854828 7.278186 -13.982713 -7.150196 -2.875042 13.772728 -8.401489 -3.21824 0.347736 -34.211544 0.771652 -0.963028 -17.733366 2.621019 -1e-06 -1e-06 -1e-06 -17.346416 -20.095213 -4.201783 21.757557 -1.638374 3.866426 2e-06 -6.338822 1e-06 -1.697587 -22.591742 -6.194008 -1e-06 -5e-06 -2e-06 36.900879 -77.499275 168.467316 48.09325 -41.906704 8.111351 32.644337 -0.340664 -0.054362 -1.622646 2.043225 -4.853758 22.182119 -20.375902 49.933331 -16.701817 -16.74353 28.476536 -6e-06 -12.690604 -2e-06 16.194565 -17.612482 2.367665 -0.105918 -1.513855 -4.275881 -5.039042 -5.612871 -2.953555 4e-06 -11.020523 -0.0 -6.111298 -15.895332 -3.840472 0.0 -1e-06 3e-06 -10.283369 -5.680286 -4.341839 11.028296 -11.302406 -2.372633 -1.384267 -14.238582 -6.320122 -0.625439 -26.924194 -3.827597 -4.173984 -49.445957 -4.033766 -13.708526 -7.363475 -3.720936 18.141153 -14.052739 -3.242676 1e-05 -18.787271 0.0 -0.42971 -8.456043 2.555504 1e-06 -0.0 -0.0 -15.923538 -20.094482 -5.473582 30.419214 -7.190826 1.735925 5e-06 -8.162929 -0.0 -1.861902 -22.861473 -6.167942 -2e-06 -4e-06 -1e-06 -170.978088 -6.338402 -2.893831 29.90736 -0.257906 0.403202 -74.451874 7.338358 -1.586095 -23.225225 1.96686 1.970402 -0.999998 -0.0 0.0 -20.663517 2.812573 -10.135752 20.281055 0.091472 -0.422789 -69.21476 -8.16127 -3.585045 -7.626021 0.689588 1.595224 -1.000002 0.0 -0.0 
0.0 0.0 0.0 0.0 -0.0 0.0 -16.752506 98.057526 190.184967 86.604004 -0.253348 93.274742 -0.488218 2.34959 -0.287756 -11.939773 -0.153587 -1.362064 22.4382 2.931849 -2.543961 45.824234 3.420129 2.309676 -2.681887 -0.503386 0.250333 -19.360809 -0.903909 -0.682726 9e-06 -0.0 -0.0 -0.138104 -0.010606 0.011837 -0.116582 -0.007593 -0.038957 -0.14925 -0.005538 0.07511 -111.810989 -81.310852 135.058121 56.691528 -44.834835 15.334526 30.589041 -0.013675 -0.248452 -1.465717 4.361314 0.030629 17.636631 -26.322725 52.411186 -19.466663 -14.395596 29.410385 -0.0 -8.774822 -2e-06 16.146446 -18.019722 5.937525 -0.609776 -1.795652 -3.889329 -4.80709 -11.046813 -2.937847 3e-06 -20.976021 -0.0 -5.019971 -25.033562 -4.031882 6e-06 0.0 1e-06 -10.634535 -5.686971 -3.565589 10.573274 -17.922955 -3.113899 3e-06 -13.82121 -1e-06 -0.501778 -31.181511 -4.027016 -11.593691 -59.737061 7.216998 -13.982716 -7.1502 -2.875043 13.772731 -8.401492 -3.218242 0.347735 -34.211555 0.771653 -0.963028 -17.733372 2.621021 0.0 2e-06 0.0 -17.346418 -20.095219 -4.201783 21.757559 -1.638374 3.866429 1e-06 -6.338824 -1e-06 -1.697588 -22.591751 -6.194008 1e-06 -3e-06 -2e-06 36.651241 -77.489769 168.736542 47.879421 -42.056316 9.127892 32.489048 -0.3685 -0.048833 -1.474337 1.751192 -4.715154 22.182106 -20.375887 49.933308 -16.701807 -16.743525 28.476519 -3e-06 -12.690598 -1e-06 16.132809 -17.618992 2.404394 -0.10592 -1.513856 -4.275879 -5.03904 -5.612871 -2.953556 3e-06 -11.02052 0.0 -6.111298 -15.89533 -3.840471 -0.0 -0.0 2e-06 -10.283369 -5.680287 -4.341837 11.028292 -11.302402 -2.372632 -1.38427 -14.238577 -6.320121 -0.625441 -26.924187 -3.827599 -4.217626 -49.34058 -4.000915 -13.708521 -7.363475 -3.72094 18.141144 -14.052736 -3.242673 6e-06 -18.78727 -2e-06 -0.429711 -8.456043 2.555503 0.0 1e-06 0.0 -15.923532 -20.094482 -5.473583 30.419205 -7.190819 1.735926 3e-06 -8.162925 -2e-06 -1.861902 -22.861467 -6.167944 1e-06 -3e-06 0.0 -172.06456 -7.831013 -3.76728 33.780972 -0.268136 0.453076 -71.516319 8.190272 -1.94677 -25.071732 1.996819 1.956198 -0.999999 -0.0 -0.0 -19.588953 3.746635 -10.375981 20.570423 0.114328 -0.441922 -70.702576 -8.547298 -3.158171 -7.311158 0.661496 1.59458 -1.000002 -0.0 0.0 
